<svg id="Layer_1" data-name="Layer 1" xmlns="http://www.w3.org/2000/svg" viewBox="0 0 739.82 380"><defs><style>.cls-1,.cls-3{fill:#fff;stroke:#000;}.cls-1,.cls-2,.cls-3{stroke-miterlimit:10;}.cls-2{stroke:#4d4d4d;opacity:0.1;}.cls-3{font-size:72px;font-family:HeavenMattersPersonalUse, Heaven Matters Personal Use;}.cls-4{fill:none;}</style></defs><title>ArrowheadFarmsLogoWhiteWords</title><path class="cls-1" d="M84.5,240.16l3.2,6.69A2.57,2.57,0,0,0,90,248.31H107.2a2.57,2.57,0,0,0,1.62-.57l8.27-6.69a2.57,2.57,0,0,0-1.62-4.57H86.82A2.57,2.57,0,0,0,84.5,240.16Z"/><path class="cls-1" d="M167.71,203.31c-5.1,7.48-22.05,27.95-69.44,56.46a2.58,2.58,0,0,0-1,3.25l4.58,10.36a2.56,2.56,0,0,0,3.17,1.4c5.75-2,22-8.65,42.86-27A241.76,241.76,0,0,0,178.31,215a2.6,2.6,0,0,0,0-3.14l-6.45-8.6A2.56,2.56,0,0,0,167.71,203.31Z"/><path class="cls-1" d="M190.18,242.91a289.09,289.09,0,0,1-35.62,4.53,2.57,2.57,0,0,1-1.94-4.4l11-10.84a2.55,2.55,0,0,1,1.2-.67,122.94,122.94,0,0,1,19.34-2.87,2.56,2.56,0,0,1,2.15.92,32.53,32.53,0,0,1,5.82,10A2.57,2.57,0,0,1,190.18,242.91Z"/><path class="cls-1" d="M115.46,270.55c-1,1.34-4.34,5.65-11.75,10.85a2.55,2.55,0,0,0-1.11,2c-.06,2.25.63,6.81,6.65,9.24,7.35,3,79.16-30.13,94-37a2.56,2.56,0,0,0-.12-4.71c-5.28-2-19.78-3-58.81,3.38a2.63,2.63,0,0,0-.85.3l-27.19,15.26A2.5,2.5,0,0,0,115.46,270.55Z"/><path class="cls-1" d="M217.35,157.44,42.32,5.2a6.46,6.46,0,0,0-10.7,4.73L26.54,237.77a6.46,6.46,0,0,0,9,6.1L70.8,229a9,9,0,0,0,2-1.17l2.94-2.27a9,9,0,0,1,9.91-.73l4.62,2.57a9,9,0,0,0,4.4,1.14h34a9,9,0,0,0,6.69-3l29-32a9,9,0,0,1,3.36-2.33l47.07-18.69A9,9,0,0,0,217.35,157.44ZM120.42,180,64.3,54.24a2.57,2.57,0,0,1,4.07-3l114,102.91a2.57,2.57,0,0,1-.78,4.3l-57.91,22.85A2.57,2.57,0,0,1,120.42,180Z"/><path class="cls-2" d="M50,10.94,42.79,4.76a6.47,6.47,0,0,0-10.7,4.76L27,237.38a6.47,6.47,0,0,0,9,6.11l35.29-14.82a9,9,0,0,0,2-1.17l2.94-2.27a9,9,0,0,1,9.91-.73L90.76,227a8.94,8.94,0,0,0,4.4,1h23.73A1429.58,1429.58,0,0,1,50,10.94Z"/><text class="cls-3" transform="translate(246.46 184.79) rotate(-21.61)">r</text><text class="cls-3" transform="translate(270.26 175.36) rotate(-17.75)">r</text><text class="cls-3" transform="translate(294.68 167.45) rotate(-14.07)">o</text><text class="cls-3" transform="translate(324.07 159.73) rotate(-9.6)">w</text><text class="cls-3" transform="translate(371.16 151.99) rotate(-5.34)">h</text><text class="cls-3" transform="matrix(1, -0.04, 0.04, 1, 406.66, 148.76)">e</text><text class="cls-3" transform="translate(434.66 147.51) rotate(0.68)">a</text><text class="cls-3" transform="translate(471.16 147.92) rotate(4.11)">d</text><text class="cls-3" transform="translate(507.65 150.69) rotate(7.06)"> </text><text class="cls-3" transform="translate(245.15 274.49) rotate(-17.89)">F</text><text class="cls-3" transform="translate(317.58 252.43) rotate(-10.96)">a</text><text class="cls-3" transform="translate(353.46 245.63) rotate(-7.63)">r</text><text class="cls-3" transform="translate(378.8 241.73) rotate(-3.7)">m</text><text class="cls-3" transform="translate(432.78 238.59) rotate(0.45)">s</text><rect class="cls-4" width="540" height="309"/></svg>