<?xml version="1.0" encoding="utf-8"?>
<!-- Generator: Adobe Illustrator 21.0.0, SVG Export Plug-In . SVG Version: 6.00 Build 0)  -->
<svg version="1.1" id="Layer_1" xmlns="http://www.w3.org/2000/svg" xmlns:xlink="http://www.w3.org/1999/xlink" x="0px" y="0px"
	 viewBox="0 0 194 289" style="enable-background:new 0 0 194 289;" xml:space="preserve">
<style type="text/css">
	.st0{fill:#FFFFFF;}
</style>
<g>
	<g>
		<path class="st0" d="M136,236.4l-3.2,6.7c-0.4,0.9-1.3,1.5-2.3,1.5h-17.2c-0.6,0-1.2-0.2-1.6-0.6l-8.3-6.7
			c-1.9-1.5-0.8-4.6,1.6-4.6h28.7C135.6,232.7,136.8,234.7,136,236.4z"/>
		<path class="st0" d="M52.8,199.5c5.1,7.5,22.1,27.9,69.4,56.5c1.1,0.7,1.6,2.1,1,3.2l-4.6,10.4c-0.5,1.2-1.9,1.8-3.2,1.4
			c-5.8-2-22-8.7-42.9-27c-9.4-8.3-19.8-19-30.5-32.8c-0.7-0.9-0.7-2.2,0-3.1l6.5-8.6C49.7,198,51.8,198.1,52.8,199.5z"/>
		<path class="st0" d="M30.3,239.1c5.6,1.1,19.8,3.6,35.6,4.5c2.4,0.1,3.6-2.7,1.9-4.4l-11-10.8c-0.3-0.3-0.7-0.6-1.2-0.7
			c-2.3-0.5-9.9-2.2-19.3-2.9c-0.8-0.1-1.6,0.3-2.2,0.9c-1.5,1.8-4.5,5.8-5.8,10C27.9,237.3,28.8,238.8,30.3,239.1z"/>
		<path class="st0" d="M105,266.8c1,1.3,4.3,5.6,11.8,10.8c0.7,0.5,1.1,1.2,1.1,2c0.1,2.3-0.6,6.8-6.7,9.2c-7.4,3-79.2-30.1-94-37
			c-2-0.9-2-3.9,0.1-4.7c5.3-2,19.8-3,58.8,3.4c0.3,0,0.6,0.2,0.9,0.3l27.2,15.3C104.5,266.2,104.8,266.5,105,266.8z"/>
	</g>
	<path class="st0" d="M5.7,168.9l47.1,18.7c1.3,0.5,2.4,1.3,3.4,2.3l29,32c1.7,1.9,4.1,3,6.7,3h34c1.5,0,3.1-0.4,4.4-1.1l4.6-2.6
		c3.2-1.8,7-1.5,9.9,0.7l2.9,2.3c0.6,0.5,1.3,0.9,2,1.2l35.3,14.8c4.3,1.8,9.1-1.4,9-6.1L188.9,6.3c-0.1-5.5-6.6-8.3-10.7-4.7
		L3.2,153.8C-2,158.1-0.6,166.4,5.7,168.9z M96.8,177.6l-57.9-22.8c-1.8-0.7-2.2-3-0.8-4.3l114-102.9c2.1-1.9,5.2,0.4,4.1,3
		l-56.1,125.8C99.5,177.5,98.1,178.1,96.8,177.6z"/>
</g>
</svg>
