<?xml version="1.0" encoding="utf-8"?>
<!-- Generator: Adobe Illustrator 21.0.0, SVG Export Plug-In . SVG Version: 6.00 Build 0)  -->
<svg version="1.1" id="Layer_1" xmlns="http://www.w3.org/2000/svg" xmlns:xlink="http://www.w3.org/1999/xlink" x="0px" y="0px"
	 viewBox="0 0 768 1366" style="enable-background:new 0 0 768 1366;" xml:space="preserve">
<style type="text/css">
	.st0{stroke:#4D4D4D;stroke-miterlimit:10;}
	.st1{opacity:0.1;fill:#FFFFFF;stroke:#4D4D4D;stroke-miterlimit:10;}
</style>
<g>
	<g>
		<g>
			<path class="st0" d="M344.3,775.1l3.2,6.7c0.4,0.9,1.3,1.5,2.3,1.5H367c0.6,0,1.2-0.2,1.6-0.6l8.3-6.7c1.9-1.5,0.8-4.6-1.6-4.6
				h-28.7C344.7,771.4,343.5,773.4,344.3,775.1z"/>
			<path class="st0" d="M427.5,738.2c-5.1,7.5-22.1,27.9-69.4,56.5c-1.1,0.7-1.6,2.1-1,3.2l4.6,10.4c0.5,1.2,1.9,1.8,3.2,1.4
				c5.8-2,22-8.7,42.9-27c9.4-8.3,19.8-19,30.5-32.8c0.7-0.9,0.7-2.2,0-3.1l-6.5-8.6C430.6,736.7,428.5,736.8,427.5,738.2z"/>
			<path class="st0" d="M450,777.8c-5.6,1.1-19.8,3.6-35.6,4.5c-2.4,0.1-3.6-2.7-1.9-4.4l11-10.8c0.3-0.3,0.7-0.6,1.2-0.7
				c2.3-0.5,9.9-2.2,19.3-2.9c0.8-0.1,1.6,0.3,2.2,0.9c1.5,1.8,4.5,5.8,5.8,10C452.4,776,451.5,777.5,450,777.8z"/>
			<path class="st0" d="M375.2,805.5c-1,1.3-4.3,5.6-11.8,10.8c-0.7,0.5-1.1,1.2-1.1,2c-0.1,2.3,0.6,6.8,6.7,9.2
				c7.4,3,79.2-30.1,94-37c2-0.9,2-3.9-0.1-4.7c-5.3-2-19.8-3-58.8,3.4c-0.3,0-0.6,0.2-0.9,0.3l-27.2,15.3
				C375.7,804.9,375.5,805.2,375.2,805.5z"/>
		</g>
		<path class="st0" d="M477.1,692.4l-175-152.2c-4.1-3.6-10.6-0.7-10.7,4.7l-5.1,227.8c-0.1,4.7,4.6,7.9,9,6.1l35.3-14.8
			c0.7-0.3,1.4-0.7,2-1.2l2.9-2.3c2.9-2.2,6.8-2.5,9.9-0.7l4.6,2.6c1.3,0.7,2.9,1.1,4.4,1.1h34c2.5,0,5-1.1,6.7-3l29-32
			c0.9-1,2.1-1.8,3.4-2.3l47.1-18.7C480.8,705.1,482.2,696.8,477.1,692.4z M380.2,714.9l-56.1-125.8c-1.1-2.5,2-4.8,4.1-3l114,102.9
			c1.4,1.3,1,3.6-0.8,4.3l-57.9,22.8C382.2,716.8,380.8,716.2,380.2,714.9z"/>
	</g>
	<path class="st1" d="M309.7,546.4l-7.2-6.2c-4.1-3.6-10.6-0.7-10.7,4.8l-5.1,227.9c-0.1,4.7,4.6,7.9,9,6.1l35.3-14.8
		c0.7-0.3,1.4-0.7,2-1.2l2.9-2.3c2.9-2.2,6.8-2.5,9.9-0.7l4.6,2.5c1.3,0.7,2.9,1,4.4,1h23.7C343.9,678.5,322.4,601.1,309.7,546.4z"
		/>
</g>
</svg>
