<?xml version="1.0" encoding="utf-8"?>
<!-- Generator: Adobe Illustrator 21.0.0, SVG Export Plug-In . SVG Version: 6.00 Build 0)  -->
<svg version="1.1" id="Layer_1" xmlns="http://www.w3.org/2000/svg" xmlns:xlink="http://www.w3.org/1999/xlink" x="0px" y="0px"
	 viewBox="0 0 2560 1600" style="enable-background:new 0 0 2560 1600;" xml:space="preserve">
<style type="text/css">
	.st0{fill:#33FFFF;}
	.st1{fill:#7B7C7F;}
	.st2{fill:#FFFFFF;}
	.st3{opacity:0.1;}
	.st4{fill:#4D4D4F;}
	.st5{fill:#D1CCD1;}
	.st6{fill:#ABADB0;}
	.st7{fill:#8CC63F;}
	.st8{fill:#006837;}
	.st9{fill:#338400;}
	.st10{fill:#39B54A;}
	.st11{fill:#534100;}
	.st12{fill:#00C554;}
	.st13{fill:#005A03;}
	.st14{fill:#434343;}
	.st15{fill:#13213C;stroke:#000000;stroke-miterlimit:10;}
	.st16{fill:#D1C700;}
	.st17{fill:#683C00;}
	.st18{fill:#006D07;}
	.st19{fill:#99C0E6;stroke:#000000;stroke-miterlimit:10;}
</style>
<rect class="st0" width="2560" height="1600"/>
<g>
	<polygon class="st1" points="976,1412.3 1202.1,858 975.4,858 975.4,891.7 975.4,858 748.8,858 975,1412.3 975,1413.6 
		975.5,1412.9 976,1413.6 	"/>
	<path class="st2" d="M945.9,1341.2c0,0,12-17.3,21.1-1.1c9.1,16.1,14.3,11.8,17.1,10.2c2.8-1.6,8.7-0.4,9.1,7.4
		c0.4,7.9,0,14.1,0,14.1L976,1414h-1L945.9,1341.2z"/>
	<polygon class="st3" points="975.4,858 975,891.7 975,891.6 975,1413 975.3,1412.9 976,1413.6 976,1412.3 1202.1,858 	"/>
</g>
<g>
	<polygon class="st4" points="724.6,1309.4 972.8,858 724.3,858 724.3,885.4 724.3,858 475.8,858 724,1309.4 724,1310.5 724.3,1310 
		724.6,1310.5 	"/>
	<path class="st2" d="M691.3,1249.9c11.7,18.5,5.8-10.6,19.3-10.8s13.1-31.8,23.6-13.9c10.5,17.9,18.3,33.5,16.3,37.2
		s-25.9,48.1-25.9,48.1L691.3,1249.9z"/>
	<polygon class="st3" points="972.8,858 724.3,858 724,885.4 724,1310 724.1,1310 724.5,1310.5 724.5,1309.4 	"/>
</g>
<g>
	<g>
		<polygon class="st5" points="844.4,1371.6 844.2,860 659.8,860 		"/>
		<polygon class="st5" points="844.2,860 844,1371.6 1028.7,860 		"/>
	</g>
	<path class="st2" d="M819.5,1302.4c3.5,9.8,10.8-6.1,17.8,0c7,6.1,7.7,11.9,13.7,2.4c6-9.5,9.9-18.4,13.4-5.8
		c3.5,12.6,0,16.1,0,16.1l-20.4,56.4L819.5,1302.4z"/>
	<polygon class="st3" points="844.2,860 844,1371.6 1028.7,860 	"/>
</g>
<polygon class="st1" points="606,1180.9 762.9,858 604.8,858 604.8,877.6 604.8,858 446.8,858 605,1180.9 605,1181.6 605.5,1181.3 
	606,1181.6 "/>
<path class="st2" d="M579.6,1129.1c0,0,4-32.1,14.7-20s17.3,16.6,26,2.2s19.6-0.2,16.3,6.4c-3.2,6.6-31.1,65.1-31.1,65.1"/>
<polygon class="st3" points="604.8,858 605,877.6 605,1180.5 605,1180.9 605,1181.6 605.5,1181.3 606,1181.6 606,1180.9 762.9,858 
	"/>
<g>
	<polygon class="st6" points="660.1,858 434,858 434,1411.2 	"/>
	<polygon class="st6" points="433.4,891.7 433.4,858 206.8,858 385.9,1296.8 433,1412.3 433,1413.6 433.5,1412.9 434,1413.6 
		434,1412.3 434,1411.2 434,858 433.4,858 	"/>
</g>
<path class="st2" d="M403.9,1264.4c15.7,16.8,25.2-40.3,49.2-13.4c23.9,26.9,26.4,50.1,26.4,50.1L433,1413.6l-47.1-116.7
	C385.9,1296.8,367.2,1225,403.9,1264.4z"/>
<polygon class="st3" points="660.1,859 434,859 434,1412.2 "/>
<path class="st7" d="M337.1,781c0,0,26.1-145.7,184.6-247.7S832.2,781,832.2,781H337.1z"/>
<path class="st3" d="M661.1,781h171.1c0,0-113.9-262-247.3-266.3C654.2,620.2,667.2,721.1,661.1,781z"/>
<g>
	<path class="st8" d="M1003.9,776.3c0,0-175.6-237-268.8-176.9C641.9,659.4,572.4,749,575.3,776.3
		C578.2,803.5,1003.9,776.3,1003.9,776.3z"/>
	<path class="st3" d="M782.8,786.7c109.3-3.3,221-10.4,221-10.4S873.8,600.7,778.1,590.1C804.5,670.3,799.8,745.9,782.8,786.7z"/>
</g>
<path class="st9" d="M208.6,781c0,0,29.6-94.2,140.1-141.5C459.2,592.2,627.1,781,627.1,781H208.6z"/>
<path class="st3" d="M394.8,781h232.2c0,0-117.2-131.8-220.2-147.6C412.1,687.1,403.8,741.6,394.8,781z"/>
<g>
	<path class="st10" d="M881,776.3c70.1-192.3,309.1-87.5,321.1,1.5S881,776.3,881,776.3z"/>
	<path class="st3" d="M1202.1,777.8c-5.7-42.1-62-87.6-127.2-103.7c5.5,53.3,2.7,112.2-5.4,139.4
		C1142.4,821.6,1207.5,818,1202.1,777.8z"/>
</g>
<g>
	<path class="st9" d="M1191,859.6H213c-22.9,0-41.7-18.7-41.7-41.7v0c0-22.9,18.7-41.7,41.7-41.7h978c22.9,0,41.7,18.8,41.7,41.7v0
		C1232.7,840.8,1213.9,859.6,1191,859.6z"/>
</g>
<g>
	<rect x="315.1" y="784.8" class="st11" width="8.8" height="15.9"/>
	<polygon class="st12" points="323.9,787 299.1,787 311.5,775 294,775 306.9,762 298.9,751 309.3,740.7 304.6,734.2 313.8,725.3 
		319.7,719.8 	"/>
	<polygon class="st13" points="316,787 340.8,787 328.4,775 345.9,775 332.9,762 341,751 330.6,740.7 335.2,734.2 326.1,725.3 
		320.1,719.8 	"/>
</g>
<g>
	<path class="st14" d="M1185.8,823.7H866.6c-12.3,0-22.2-9.9-22.2-22.2l0,0c0-12.3,9.9-22.2,22.2-22.2h319.2
		c12.3,0,22.2,9.9,22.2,22.2l0,0C1208,813.8,1198.1,823.7,1185.8,823.7z"/>
	<g>
		<g>
			<g>
				<polygon class="st15" points="927.9,536.4 935,520 972.5,526.8 972.5,799.5 946,799.5 928,799.5 				"/>
				<line class="st15" x1="936.5" y1="519.2" x2="936.5" y2="796.5"/>
			</g>
			<g>
				<path class="st15" d="M861.1,482.2l28.4,27.8c0,0,16,3,32,26.9v273.7H861C861,810.5,831.9,606.7,861.1,482.2z"/>
				<line class="st15" x1="891" y1="509.2" x2="891" y2="807.5"/>
			</g>
			<g>
				<polygon class="st15" points="994,610.3 1035.6,593.4 1050.5,600.5 1050.5,805.5 1037,805.5 994,805.5 				"/>
				<line class="st15" x1="1034.5" y1="593" x2="1034.5" y2="803"/>
			</g>
			<g>
				<g>
					<path class="st15" d="M1170.5,683.5v-151c0,0-41,10.3-68,56.7v94.3H1170.5z"/>
					<line class="st15" x1="1153.5" y1="681" x2="1153.5" y2="539"/>
				</g>
				<g>
					<polygon class="st15" points="1079.2,677.8 1184.4,673.5 1197.5,682.5 1197.5,806.5 1079,806.5 					"/>
					<line class="st15" x1="1182.5" y1="673" x2="1182.5" y2="803"/>
				</g>
			</g>
		</g>
		<path class="st16" d="M861.2,560.3h-1.8c-1.7,0-3.1-1.4-3.1-3.1l0,0c0-1.7,1.4-3.1,3.1-3.1h1.8c1.7,0,3.1,1.4,3.1,3.1l0,0
			C864.3,558.9,862.9,560.3,861.2,560.3z"/>
		<path class="st16" d="M869.2,579.3h-1.8c-1.7,0-3.1-1.4-3.1-3.1l0,0c0-1.7,1.4-3.1,3.1-3.1h1.8c1.7,0,3.1,1.4,3.1,3.1l0,0
			C872.3,577.9,870.9,579.3,869.2,579.3z"/>
		<path class="st16" d="M863.2,615.3h-1.8c-1.7,0-3.1-1.4-3.1-3.1l0,0c0-1.7,1.4-3.1,3.1-3.1h1.8c1.7,0,3.1,1.4,3.1,3.1l0,0
			C866.3,613.9,864.9,615.3,863.2,615.3z"/>
		<path class="st16" d="M859.2,667.3h-1.8c-1.7,0-3.1-1.4-3.1-3.1l0,0c0-1.7,1.4-3.1,3.1-3.1h1.8c1.7,0,3.1,1.4,3.1,3.1l0,0
			C862.3,665.9,860.9,667.3,859.2,667.3z"/>
		<path class="st16" d="M875.2,655.3h-1.8c-1.7,0-3.1-1.4-3.1-3.1l0,0c0-1.7,1.4-3.1,3.1-3.1h1.8c1.7,0,3.1,1.4,3.1,3.1l0,0
			C878.3,653.9,876.9,655.3,875.2,655.3z"/>
		<path class="st16" d="M875.2,714.3h-1.8c-1.7,0-3.1-1.4-3.1-3.1l0,0c0-1.7,1.4-3.1,3.1-3.1h1.8c1.7,0,3.1,1.4,3.1,3.1l0,0
			C878.3,712.9,876.9,714.3,875.2,714.3z"/>
		<path class="st16" d="M867.2,766.3h-1.8c-1.7,0-3.1-1.4-3.1-3.1l0,0c0-1.7,1.4-3.1,3.1-3.1h1.8c1.7,0,3.1,1.4,3.1,3.1l0,0
			C870.3,764.9,868.9,766.3,867.2,766.3z"/>
		<path class="st16" d="M884.2,766.3h-1.8c-1.7,0-3.1-1.4-3.1-3.1l0,0c0-1.7,1.4-3.1,3.1-3.1h1.8c1.7,0,3.1,1.4,3.1,3.1l0,0
			C887.3,764.9,885.9,766.3,884.2,766.3z"/>
		<path class="st16" d="M913.4,754.3L913.4,754.3c-1.7,0-3.1-1.4-3.1-3.1l0,0c0-1.7,1.4-3.1,3.1-3.1l0,0c1.7,0,3.1,1.4,3.1,3.1l0,0
			C916.5,752.9,915.1,754.3,913.4,754.3z"/>
		<path class="st16" d="M913.4,726.3L913.4,726.3c-1.7,0-3.1-1.4-3.1-3.1l0,0c0-1.7,1.4-3.1,3.1-3.1l0,0c1.7,0,3.1,1.4,3.1,3.1l0,0
			C916.5,724.9,915.1,726.3,913.4,726.3z"/>
		<path class="st16" d="M912.4,671.3L912.4,671.3c-1.7,0-3.1-1.4-3.1-3.1l0,0c0-1.7,1.4-3.1,3.1-3.1l0,0c1.7,0,3.1,1.4,3.1,3.1l0,0
			C915.5,669.9,914.1,671.3,912.4,671.3z"/>
		<path class="st16" d="M904.4,622.3L904.4,622.3c-1.7,0-3.1-1.4-3.1-3.1l0,0c0-1.7,1.4-3.1,3.1-3.1l0,0c1.7,0,3.1,1.4,3.1,3.1l0,0
			C907.5,620.9,906.1,622.3,904.4,622.3z"/>
		<path class="st16" d="M917.4,548.3L917.4,548.3c-1.7,0-3.1-1.4-3.1-3.1l0,0c0-1.7,1.4-3.1,3.1-3.1l0,0c1.7,0,3.1,1.4,3.1,3.1l0,0
			C920.5,546.9,919.1,548.3,917.4,548.3z"/>
		<path class="st16" d="M947.1,532h-1.8c-1.7,0-3.1-1.4-3.1-3.1l0,0c0-1.7,1.4-3.1,3.1-3.1h1.8c1.7,0,3.1,1.4,3.1,3.1l0,0
			C950.2,530.6,948.8,532,947.1,532z"/>
		<path class="st16" d="M965.8,551.4H964c-1.7,0-3.1-1.4-3.1-3.1l0,0c0-1.7,1.4-3.1,3.1-3.1h1.8c1.7,0,3.1,1.4,3.1,3.1l0,0
			C968.9,550,967.5,551.4,965.8,551.4z"/>
		<path class="st16" d="M931,557.6L931,557.6c-1.7,0-3.1-1.4-3.1-3.1l0,0c0-1.7,1.4-3.1,3.1-3.1l0,0c1.7,0,3.1,1.4,3.1,3.1l0,0
			C934.1,556.2,932.7,557.6,931,557.6z"/>
		<path class="st16" d="M947.1,593h-1.8c-1.7,0-3.1-1.4-3.1-3.1l0,0c0-1.7,1.4-3.1,3.1-3.1h1.8c1.7,0,3.1,1.4,3.1,3.1l0,0
			C950.2,591.6,948.8,593,947.1,593z"/>
		<path class="st16" d="M961.8,649.4h-1.8c-1.7,0-3.1-1.4-3.1-3.1l0,0c0-1.7,1.4-3.1,3.1-3.1h1.8c1.7,0,3.1,1.4,3.1,3.1l0,0
			C964.9,648,963.5,649.4,961.8,649.4z"/>
		<path class="st16" d="M947.1,708.1h-1.8c-1.7,0-3.1-1.4-3.1-3.1l0,0c0-1.7,1.4-3.1,3.1-3.1h1.8c1.7,0,3.1,1.4,3.1,3.1l0,0
			C950.2,706.7,948.8,708.1,947.1,708.1z"/>
		<path class="st16" d="M965.8,763.2H964c-1.7,0-3.1-1.4-3.1-3.1l0,0c0-1.7,1.4-3.1,3.1-3.1h1.8c1.7,0,3.1,1.4,3.1,3.1l0,0
			C968.9,761.8,967.5,763.2,965.8,763.2z"/>
		<path class="st16" d="M943.1,766.3h-1.8c-1.7,0-3.1-1.4-3.1-3.1l0,0c0-1.7,1.4-3.1,3.1-3.1h1.8c1.7,0,3.1,1.4,3.1,3.1l0,0
			C946.2,764.9,944.8,766.3,943.1,766.3z"/>
		<path class="st16" d="M1004.2,619.2h-1.8c-1.7,0-3.1-1.4-3.1-3.1l0,0c0-1.7,1.4-3.1,3.1-3.1h1.8c1.7,0,3.1,1.4,3.1,3.1l0,0
			C1007.3,617.8,1005.9,619.2,1004.2,619.2z"/>
		<path class="st16" d="M1027.2,608h-1.8c-1.7,0-3.1-1.4-3.1-3.1l0,0c0-1.7,1.4-3.1,3.1-3.1h1.8c1.7,0,3.1,1.4,3.1,3.1l0,0
			C1030.3,606.6,1028.9,608,1027.2,608z"/>
		<path class="st16" d="M1019.1,646.3h-1.8c-1.7,0-3.1-1.4-3.1-3.1v0c0-1.7,1.4-3.1,3.1-3.1h1.8c1.7,0,3.1,1.4,3.1,3.1v0
			C1022.2,644.9,1020.8,646.3,1019.1,646.3z"/>
		<path class="st16" d="M1004.2,723.2h-1.8c-1.7,0-3.1-1.4-3.1-3.1l0,0c0-1.7,1.4-3.1,3.1-3.1h1.8c1.7,0,3.1,1.4,3.1,3.1l0,0
			C1007.3,721.8,1005.9,723.2,1004.2,723.2z"/>
		<path class="st16" d="M1012.3,683.5h-1.8c-1.7,0-3.1-1.4-3.1-3.1l0,0c0-1.7,1.4-3.1,3.1-3.1h1.8c1.7,0,3.1,1.4,3.1,3.1l0,0
			C1015.4,682.1,1014,683.5,1012.3,683.5z"/>
		<path class="st16" d="M1027.2,702.6h-1.8c-1.7,0-3.1-1.4-3.1-3.1l0,0c0-1.7,1.4-3.1,3.1-3.1h1.8c1.7,0,3.1,1.4,3.1,3.1l0,0
			C1030.3,701.2,1028.9,702.6,1027.2,702.6z"/>
		<path class="st16" d="M1018.9,769.4h-1.8c-1.7,0-3.1-1.4-3.1-3.1l0,0c0-1.7,1.4-3.1,3.1-3.1h1.8c1.7,0,3.1,1.4,3.1,3.1l0,0
			C1022,768,1020.6,769.4,1018.9,769.4z"/>
		<path class="st16" d="M1004.2,747.2h-1.8c-1.7,0-3.1-1.4-3.1-3.1v0c0-1.7,1.4-3.1,3.1-3.1h1.8c1.7,0,3.1,1.4,3.1,3.1v0
			C1007.3,745.8,1005.9,747.2,1004.2,747.2z"/>
		<path class="st16" d="M1146.5,560.3h-1.8c-1.7,0-3.1-1.4-3.1-3.1l0,0c0-1.7,1.4-3.1,3.1-3.1h1.8c1.7,0,3.1,1.4,3.1,3.1l0,0
			C1149.6,558.9,1148.2,560.3,1146.5,560.3z"/>
		<path class="st16" d="M1126.2,576.2h-1.8c-1.7,0-3.1-1.4-3.1-3.1l0,0c0-1.7,1.4-3.1,3.1-3.1h1.8c1.7,0,3.1,1.4,3.1,3.1l0,0
			C1129.3,574.8,1127.9,576.2,1126.2,576.2z"/>
		<path class="st16" d="M1118.2,612.2h-1.8c-1.7,0-3.1-1.4-3.1-3.1l0,0c0-1.7,1.4-3.1,3.1-3.1h1.8c1.7,0,3.1,1.4,3.1,3.1l0,0
			C1121.3,610.8,1119.9,612.2,1118.2,612.2z"/>
		<path class="st16" d="M1139.2,658.4h-1.8c-1.7,0-3.1-1.4-3.1-3.1l0,0c0-1.7,1.4-3.1,3.1-3.1h1.8c1.7,0,3.1,1.4,3.1,3.1l0,0
			C1142.3,657,1140.9,658.4,1139.2,658.4z"/>
		<path class="st16" d="M1095.1,696.4h-1.8c-1.7,0-3.1-1.4-3.1-3.1l0,0c0-1.7,1.4-3.1,3.1-3.1h1.8c1.7,0,3.1,1.4,3.1,3.1l0,0
			C1098.2,695,1096.8,696.4,1095.1,696.4z"/>
		<path class="st16" d="M1146.5,696.4h-1.8c-1.7,0-3.1-1.4-3.1-3.1l0,0c0-1.7,1.4-3.1,3.1-3.1h1.8c1.7,0,3.1,1.4,3.1,3.1l0,0
			C1149.6,695,1148.2,696.4,1146.5,696.4z"/>
		<path class="st16" d="M1122.2,696.4h-1.8c-1.7,0-3.1-1.4-3.1-3.1l0,0c0-1.7,1.4-3.1,3.1-3.1h1.8c1.7,0,3.1,1.4,3.1,3.1l0,0
			C1125.3,695,1123.9,696.4,1122.2,696.4z"/>
		<path class="st16" d="M1171.4,726.3h-1.8c-1.7,0-3.1-1.4-3.1-3.1l0,0c0-1.7,1.4-3.1,3.1-3.1h1.8c1.7,0,3.1,1.4,3.1,3.1l0,0
			C1174.5,724.9,1173.1,726.3,1171.4,726.3z"/>
		<path class="st16" d="M1122.2,729.4h-1.8c-1.7,0-3.1-1.4-3.1-3.1l0,0c0-1.7,1.4-3.1,3.1-3.1h1.8c1.7,0,3.1,1.4,3.1,3.1l0,0
			C1125.3,728,1123.9,729.4,1122.2,729.4z"/>
		<path class="st16" d="M1154.4,780.9h-1.8c-1.7,0-3.1-1.4-3.1-3.1l0,0c0-1.7,1.4-3.1,3.1-3.1h1.8c1.7,0,3.1,1.4,3.1,3.1l0,0
			C1157.5,779.5,1156.1,780.9,1154.4,780.9z"/>
		<path class="st16" d="M1095.1,784h-1.8c-1.7,0-3.1-1.4-3.1-3.1l0,0c0-1.7,1.4-3.1,3.1-3.1h1.8c1.7,0,3.1,1.4,3.1,3.1l0,0
			C1098.2,782.6,1096.8,784,1095.1,784z"/>
		<path class="st16" d="M1122.2,772.5h-1.8c-1.7,0-3.1-1.4-3.1-3.1l0,0c0-1.7,1.4-3.1,3.1-3.1h1.8c1.7,0,3.1,1.4,3.1,3.1l0,0
			C1125.3,771.1,1123.9,772.5,1122.2,772.5z"/>
	</g>
</g>
<g>
	<rect x="277" y="796.3" class="st11" width="10.5" height="19.4"/>
	<polygon class="st12" points="287.5,799 258,799 272.8,784 252,784 267.4,768.3 257.8,755 270.2,742.5 264.7,734.6 275.5,723.8 
		282.6,717.1 	"/>
	<polygon class="st13" points="278.2,799 307.7,799 292.9,784 313.7,784 298.3,768.3 307.9,755 295.5,742.5 301,734.6 290.2,723.8 
		283.1,717.1 	"/>
</g>
<g>
	<rect x="421.2" y="659.5" class="st11" width="5.5" height="10.2"/>
	<polygon class="st12" points="426.7,661 411.2,661 418.9,653 408,653 416.1,644.8 411.1,637.8 417.5,631.2 414.7,627.1 
		420.4,621.4 424.1,617.9 	"/>
	<polygon class="st13" points="421.7,661 437.3,661 429.5,653 440.4,653 432.3,644.8 437.4,637.8 430.9,631.2 433.8,627.1 
		428.1,621.4 424.3,617.9 	"/>
</g>
<g>
	<rect x="439.2" y="674.5" class="st11" width="5.5" height="10.2"/>
	<polygon class="st12" points="444.7,676 429.2,676 436.9,668 426,668 434.1,659.8 429.1,652.8 435.5,646.2 432.7,642.1 
		438.4,636.4 442.1,632.9 	"/>
	<polygon class="st13" points="439.7,676 455.3,676 447.5,668 458.4,668 450.3,659.8 455.4,652.8 448.9,646.2 451.8,642.1 
		446.1,636.4 442.3,632.9 	"/>
</g>
<g>
	<rect x="615.2" y="543.5" class="st11" width="3.4" height="6.2"/>
	<polygon class="st12" points="618.6,544 609,544 613.8,540 607,540 612,534.8 608.9,530.4 612.9,526.4 611.1,523.8 614.7,520.3 
		617,518 	"/>
	<polygon class="st13" points="615.6,544 625.2,544 620.4,540 627.2,540 622.2,534.8 625.3,530.4 621.3,526.4 623.1,523.8 
		619.5,520.3 617.2,518 	"/>
</g>
<g>
	<rect x="634.2" y="546.5" class="st11" width="3.4" height="6.2"/>
	<polygon class="st12" points="637.6,547 628,547 632.8,543 626,543 631,537.8 627.9,533.4 631.9,529.4 630.1,526.8 633.7,523.3 
		636,521 	"/>
	<polygon class="st13" points="634.6,547 644.2,547 639.4,543 646.2,543 641.2,537.8 644.3,533.4 640.3,529.4 642.1,526.8 
		638.5,523.3 636.2,521 	"/>
</g>
<g>
	<rect x="623.2" y="558.5" class="st11" width="3.4" height="6.2"/>
	<polygon class="st12" points="626.6,559 617,559 621.8,555 615,555 620,549.8 616.9,545.4 620.9,541.4 619.1,538.8 622.7,535.3 
		625,533 	"/>
	<polygon class="st13" points="623.6,559 633.2,559 628.4,555 635.2,555 630.2,549.8 633.3,545.4 629.3,541.4 631.1,538.8 
		627.5,535.3 625.2,533 	"/>
</g>
<g>
	<g>
		<ellipse class="st7" cx="394.4" cy="731.7" rx="29.4" ry="14.8"/>
		<ellipse class="st7" cx="395" cy="733.9" rx="24.7" ry="25.9"/>
		<ellipse class="st7" cx="409.1" cy="716.5" rx="11.1" ry="9.8"/>
		<ellipse class="st7" cx="378.4" cy="758.1" rx="8" ry="8.7"/>
		<circle class="st7" cx="408.2" cy="750.1" r="8"/>
		<ellipse class="st7" cx="391.3" cy="712.1" rx="12.9" ry="8.6"/>
		<ellipse class="st7" cx="374.4" cy="749.2" rx="4" ry="7.1"/>
		<ellipse class="st7" cx="401.7" cy="759.7" rx="7.3" ry="5.2"/>
		<ellipse class="st7" cx="386.8" cy="759.7" rx="4.3" ry="3.4"/>
	</g>
	<rect x="390.3" y="750.1" class="st17" width="8.2" height="59.4"/>
	<g>
		<ellipse class="st18" cx="398" cy="731.7" rx="29.4" ry="14.8"/>
		<ellipse class="st18" cx="397.3" cy="729.4" rx="24.7" ry="25.9"/>
		<ellipse class="st18" cx="383.3" cy="746.8" rx="11.1" ry="9.8"/>
		<ellipse class="st18" cx="414" cy="705.2" rx="8" ry="8.7"/>
		<circle class="st18" cx="384.2" cy="713.2" r="8"/>
		<ellipse class="st18" cx="401.1" cy="751.2" rx="12.9" ry="8.6"/>
		<ellipse class="st18" cx="418" cy="714.2" rx="4" ry="7.1"/>
		<ellipse class="st18" cx="390.6" cy="703.6" rx="7.3" ry="5.2"/>
		<ellipse class="st18" cx="405.5" cy="703.6" rx="4.3" ry="3.4"/>
	</g>
</g>
<g>
	<g>
		<ellipse class="st7" cx="494.1" cy="735.3" rx="16.4" ry="8.3"/>
		<ellipse class="st7" cx="493.8" cy="736.5" rx="13.8" ry="14.5"/>
		<ellipse class="st7" cx="485.9" cy="726.8" rx="6.2" ry="5.5"/>
		<ellipse class="st7" cx="503.1" cy="750" rx="4.5" ry="4.8"/>
		<circle class="st7" cx="486.4" cy="745.6" r="4.5"/>
		<ellipse class="st7" cx="495.9" cy="724.4" rx="7.2" ry="4.8"/>
		<ellipse class="st7" cx="505.3" cy="745" rx="2.2" ry="4"/>
		<ellipse class="st7" cx="490" cy="750.9" rx="4.1" ry="2.9"/>
		<ellipse class="st7" cx="498.3" cy="750.9" rx="2.4" ry="1.9"/>
	</g>
	
		<rect x="491.9" y="745.6" transform="matrix(-1 -4.459112e-11 4.459112e-11 -1 988.2736 1524.2378)" class="st17" width="4.6" height="33.1"/>
	<g>
		<ellipse class="st18" cx="492.1" cy="735.3" rx="16.4" ry="8.3"/>
		<ellipse class="st18" cx="492.5" cy="734" rx="13.8" ry="14.5"/>
		<ellipse class="st18" cx="500.3" cy="743.7" rx="6.2" ry="5.5"/>
		<ellipse class="st18" cx="483.2" cy="720.5" rx="4.5" ry="4.8"/>
		<circle class="st18" cx="499.8" cy="725" r="4.5"/>
		<ellipse class="st18" cx="490.4" cy="746.2" rx="7.2" ry="4.8"/>
		<ellipse class="st18" cx="481" cy="725.5" rx="2.2" ry="4"/>
		<ellipse class="st18" cx="496.2" cy="719.7" rx="4.1" ry="2.9"/>
		<ellipse class="st18" cx="487.9" cy="719.7" rx="2.4" ry="1.9"/>
	</g>
</g>
<g>
	<rect x="752.9" y="691.3" class="st11" width="3.1" height="6.3"/>
	<polygon class="st12" points="756,692 747.4,692 751.7,688 745.6,688 750.1,682.5 747.3,678 750.9,673.8 749.3,671.2 752.5,667.6 
		754.6,665.3 	"/>
	<polygon class="st13" points="753.3,692 761.9,692 757.6,688 763.7,688 759.2,682.5 762,678 758.4,673.8 760,671.2 756.8,667.6 
		754.7,665.3 	"/>
</g>
<g>
	<polyline class="st19" points="671.5,729 671.5,799.5 661.5,799.5 661.5,731.1 665,729.9 666.3,729.5 661.4,729.5 661.4,726.2 
		674.3,726.4 	"/>
	<path class="st19" d="M625.6,685.5c-17.5,0-33.1,5-43.4,12.9c-0.5,0.4,0,1.1,0.6,0.9c7.4-2.1,20.8-3.8,35.4,4.6
		c0.5,0.3,0.3,1-0.3,1c-7.1,0.2-32.4,1.3-46.3,6.6c-0.1,0.1-0.3,0.2-0.3,0.3c-1,2.3-1.6,4.6-1.8,7c0,0.4,0.5,0.7,0.9,0.5
		c10.8-6.4,34.4-10.9,61.8-10.9c16.6,0,34.1,4.1,46.2,7.2c1.4,0.4,2.7-0.8,2.3-2.1C675.2,697.5,652.6,685.5,625.6,685.5z"/>
	<polygon class="st19" points="638.5,722.5 650.5,722.5 650.5,724.5 649.5,724.5 649.5,802.5 639.5,802.5 639.5,726.9 644.8,724.5 
		638.5,724.5 	"/>
	<path class="st19" d="M671.5,728c1.3,0.4,2.6-0.3,2.9-1.5c0.5-2,0.9-4.9,0-6.6c-1.6-2.7-53.4-17.5-98.3-0.3c-0.8,0.3-1.4,1-1.4,1.7
		c0,0.7,0.5,1.6,2.5,1.9C581.3,723.8,603.8,708.7,671.5,728z"/>
	<polygon class="st19" points="578.1,726.2 591.5,726 591.5,729.5 588.5,729.5 588.5,799.5 578.5,799.5 578.5,731.1 581.9,729.9 
		583,729.5 578.1,729.5 	"/>
	<polygon class="st19" points="598.5,722.5 611.5,722.5 611.5,724.5 610.5,724.5 610.5,802.5 600.5,802.5 600.5,726.9 605.1,724.5 
		598.5,724.5 	"/>
	<polygon class="st19" points="618.6,773.5 635.4,773.5 632.5,775.8 632.5,796.5 634.5,796.5 634.5,799.5 618.5,799.5 618.5,796.5 
		619.5,796.5 619.5,779.5 625.2,778.1 626,777.5 621.7,777.5 	"/>
	<path class="st19" d="M575.4,798.9c9.8,3.4,51.9,15.7,101.8-0.3c1-0.3,2.1,0.4,2.1,1.4v1.4c0,0.8,0.7,1.4,1.6,1.4h5.2
		c0.9,0,1.6,0.6,1.6,1.4v7.1c0,0.5-0.3,1-0.8,1.2c-6.9,3.6-58.4,28.3-120.6-0.6c-0.5-0.2-0.9-0.7-0.9-1.3v-2.8
		c0-1.1,1.3-1.8,2.4-1.2c5.9,3.1,22.8,10.5,48.4,10.3c2.1,0,2.1-2.8,0-2.9c-15.3-0.6-33.1-2.7-42.4-8.6c-0.4-0.3-0.7-0.7-0.7-1.2
		l0-3.9C573.2,799.2,574.4,798.6,575.4,798.9z"/>
</g>
<g>
	<rect x="744" y="709.4" class="st11" width="3.1" height="6.3"/>
	<polygon class="st12" points="747.1,710 738.4,710 742.7,706 736.6,706 741.1,700.5 738.3,696 742,691.9 740.4,689.3 743.5,685.7 
		745.6,683.4 	"/>
	<polygon class="st13" points="744.3,710 753,710 748.7,706 754.8,706 750.2,700.5 753,696 749.4,691.9 751,689.3 747.9,685.7 
		745.8,683.4 	"/>
</g>
<g>
	<g class="st3">
		<ellipse cx="566.4" cy="278.8" rx="125.7" ry="36.7"/>
		<circle cx="458.5" cy="246.1" r="44.3"/>
		<circle cx="547.4" cy="219" r="60.3"/>
		<ellipse cx="635.2" cy="216.8" rx="47" ry="51.2"/>
		<ellipse cx="649" cy="260" rx="55.9" ry="43.2"/>
	</g>
	<g>
		<ellipse class="st2" cx="556.4" cy="267.8" rx="125.7" ry="36.7"/>
		<circle class="st2" cx="448.5" cy="235.1" r="44.3"/>
		<circle class="st2" cx="537.4" cy="208" r="60.3"/>
		<ellipse class="st2" cx="625.2" cy="205.8" rx="47" ry="51.2"/>
		<ellipse class="st2" cx="639" cy="249" rx="55.9" ry="43.2"/>
	</g>
</g>
<g>
	<g class="st3">
		<ellipse cx="243.3" cy="476.1" rx="85.1" ry="24.9"/>
		<circle cx="170.2" cy="454" r="30"/>
		<circle cx="230.4" cy="435.6" r="40.9"/>
		<ellipse cx="289.9" cy="434.1" rx="31.9" ry="34.7"/>
		<ellipse cx="299.3" cy="463.4" rx="37.9" ry="29.3"/>
	</g>
	<g>
		<ellipse class="st2" cx="236.5" cy="468.7" rx="85.1" ry="24.9"/>
		<circle class="st2" cx="163.4" cy="446.5" r="30"/>
		<circle class="st2" cx="223.6" cy="428.2" r="40.9"/>
		<ellipse class="st2" cx="283.1" cy="426.7" rx="31.9" ry="34.7"/>
		<ellipse class="st2" cx="292.5" cy="456" rx="37.9" ry="29.3"/>
	</g>
</g>
<g>
	<g class="st3">
		<ellipse cx="1174.1" cy="396.1" rx="81.2" ry="23.7"/>
		<circle cx="1104.4" cy="375" r="28.6"/>
		<circle cx="1161.9" cy="357.5" r="39"/>
		<ellipse cx="1218.6" cy="356.1" rx="30.4" ry="33.1"/>
		<ellipse cx="1227.5" cy="384" rx="36.1" ry="27.9"/>
	</g>
	<g>
		<ellipse class="st2" cx="1167.7" cy="389" rx="81.2" ry="23.7"/>
		<circle class="st2" cx="1098" cy="367.9" r="28.6"/>
		<circle class="st2" cx="1155.4" cy="350.4" r="39"/>
		<ellipse class="st2" cx="1212.1" cy="349" rx="30.4" ry="33.1"/>
		<ellipse class="st2" cx="1221" cy="376.9" rx="36.1" ry="27.9"/>
	</g>
</g>
<g>
	<g class="st3">
		<ellipse cx="1557.5" cy="472.5" rx="107.1" ry="28.7"/>
		<ellipse cx="1649.5" cy="447" rx="37.8" ry="34.6"/>
		<ellipse cx="1573.7" cy="425.8" rx="51.4" ry="47.1"/>
		<ellipse cx="1498.8" cy="424.1" rx="40.1" ry="40"/>
		<ellipse cx="1487" cy="457.8" rx="47.6" ry="33.8"/>
	</g>
	<g>
		<ellipse class="st2" cx="1566" cy="463.9" rx="107.1" ry="28.7"/>
		<ellipse class="st2" cx="1658" cy="438.4" rx="37.8" ry="34.6"/>
		<ellipse class="st2" cx="1582.2" cy="417.2" rx="51.4" ry="47.1"/>
		<ellipse class="st2" cx="1507.3" cy="415.5" rx="40.1" ry="40"/>
		<ellipse class="st2" cx="1495.5" cy="449.2" rx="47.6" ry="33.8"/>
	</g>
</g>
<g>
	<g class="st3">
		<ellipse cx="2319.1" cy="608.5" rx="93.8" ry="25.1"/>
		<ellipse cx="2238.6" cy="586.1" rx="33.1" ry="30.3"/>
		<ellipse cx="2304.9" cy="567.6" rx="45" ry="41.3"/>
		<ellipse cx="2370.4" cy="566.1" rx="35.1" ry="35"/>
		<ellipse cx="2380.7" cy="595.6" rx="41.7" ry="29.6"/>
	</g>
	<g>
		<ellipse class="st2" cx="2311.6" cy="601" rx="93.8" ry="25.1"/>
		<ellipse class="st2" cx="2231.1" cy="578.6" rx="33.1" ry="30.3"/>
		<ellipse class="st2" cx="2297.5" cy="560" rx="45" ry="41.3"/>
		<ellipse class="st2" cx="2363" cy="558.5" rx="35.1" ry="35"/>
		<ellipse class="st2" cx="2373.3" cy="588.1" rx="41.7" ry="29.6"/>
	</g>
</g>
<g>
	<g class="st3">
		<ellipse cx="532" cy="475.2" rx="29.6" ry="8.7"/>
		<circle cx="506.6" cy="467.5" r="10.4"/>
		<circle cx="527.6" cy="461.1" r="14.2"/>
		<ellipse cx="548.2" cy="460.6" rx="11.1" ry="12.1"/>
		<ellipse cx="551.5" cy="470.8" rx="13.2" ry="10.2"/>
	</g>
	<g>
		<ellipse class="st2" cx="529.7" cy="472.6" rx="29.6" ry="8.7"/>
		<circle class="st2" cx="504.2" cy="464.9" r="10.4"/>
		<circle class="st2" cx="525.2" cy="458.5" r="14.2"/>
		<ellipse class="st2" cx="545.9" cy="458" rx="11.1" ry="12.1"/>
		<ellipse class="st2" cx="549.2" cy="468.2" rx="13.2" ry="10.2"/>
	</g>
</g>
<g>
	<g class="st3">
		<ellipse cx="679.1" cy="526.2" rx="16.5" ry="4.8"/>
		<circle cx="693.3" cy="521.9" r="5.8"/>
		<circle cx="681.6" cy="518.3" r="7.9"/>
		<ellipse cx="670.1" cy="518.1" rx="6.2" ry="6.7"/>
		<ellipse cx="668.3" cy="523.7" rx="7.3" ry="5.7"/>
	</g>
	<g>
		<ellipse class="st2" cx="680.5" cy="524.8" rx="16.5" ry="4.8"/>
		<circle class="st2" cx="694.6" cy="520.5" r="5.8"/>
		<circle class="st2" cx="683" cy="516.9" r="7.9"/>
		<ellipse class="st2" cx="671.4" cy="516.6" rx="6.2" ry="6.7"/>
		<ellipse class="st2" cx="669.6" cy="522.3" rx="7.3" ry="5.7"/>
	</g>
</g>
<g>
	<g class="st3">
		<ellipse cx="1982.1" cy="430.9" rx="70.9" ry="20.3"/>
		<ellipse cx="2043" cy="412.8" rx="25" ry="24.5"/>
		<ellipse cx="1992.8" cy="397.8" rx="34" ry="33.4"/>
		<ellipse cx="1943.3" cy="396.6" rx="26.5" ry="28.3"/>
		<ellipse cx="1935.5" cy="420.5" rx="31.5" ry="23.9"/>
	</g>
	<g>
		<ellipse class="st2" cx="1987.8" cy="424.8" rx="70.9" ry="20.3"/>
		<ellipse class="st2" cx="2048.6" cy="406.7" rx="25" ry="24.5"/>
		<ellipse class="st2" cx="1998.5" cy="391.8" rx="34" ry="33.4"/>
		<ellipse class="st2" cx="1949" cy="390.5" rx="26.5" ry="28.3"/>
		<ellipse class="st2" cx="1941.2" cy="414.5" rx="31.5" ry="23.9"/>
	</g>
</g>
</svg>
